<mxfile host="app.diagrams.net" agent="Mozilla/5.0 (Windows NT 10.0; Win64; x64) AppleWebKit/537.36 (KHTML, like Gecko) Chrome/132.0.0.0 Safari/537.36" version="26.0.6">
  <diagram name="Страница — 1" id="VzCEovMwz_sihKzQtYCU">
    <mxGraphModel dx="989" dy="514" grid="1" gridSize="10" guides="1" tooltips="1" connect="1" arrows="1" fold="1" page="1" pageScale="1" pageWidth="500" pageHeight="300" math="0" shadow="0">
      <root>
        <mxCell id="0" />
        <mxCell id="1" parent="0" />
        <mxCell id="YSPF_yS68U6jwQ297TWY-43" value="f2 = EF [ PrintingReceipt ]" style="text;html=1;align=center;verticalAlign=middle;whiteSpace=wrap;rounded=0;" vertex="1" parent="1">
          <mxGeometry x="150" y="30" width="200" height="30" as="geometry" />
        </mxCell>
        <mxCell id="YSPF_yS68U6jwQ297TWY-44" value="Ф4 = EF [ PrintingReceipt ]" style="text;html=1;align=center;verticalAlign=middle;whiteSpace=wrap;rounded=0;" vertex="1" parent="1">
          <mxGeometry x="135" y="135" width="230" height="30" as="geometry" />
        </mxCell>
        <mxCell id="YSPF_yS68U6jwQ297TWY-45" value="f1 = PrintingReceipt" style="text;html=1;align=center;verticalAlign=middle;whiteSpace=wrap;rounded=0;" vertex="1" parent="1">
          <mxGeometry x="240" y="90" width="130" height="30" as="geometry" />
        </mxCell>
        <mxCell id="YSPF_yS68U6jwQ297TWY-46" value="" style="endArrow=none;html=1;rounded=0;entryX=0.314;entryY=0.901;entryDx=0;entryDy=0;entryPerimeter=0;exitX=0.336;exitY=0.045;exitDx=0;exitDy=0;exitPerimeter=0;" edge="1" parent="1" source="YSPF_yS68U6jwQ297TWY-44" target="YSPF_yS68U6jwQ297TWY-43">
          <mxGeometry width="50" height="50" relative="1" as="geometry">
            <mxPoint x="130" y="150" as="sourcePoint" />
            <mxPoint x="180" y="100" as="targetPoint" />
          </mxGeometry>
        </mxCell>
        <mxCell id="YSPF_yS68U6jwQ297TWY-47" value="" style="endArrow=none;html=1;rounded=0;entryX=0.596;entryY=0.867;entryDx=0;entryDy=0;entryPerimeter=0;exitX=0.5;exitY=0;exitDx=0;exitDy=0;" edge="1" parent="1" source="YSPF_yS68U6jwQ297TWY-45" target="YSPF_yS68U6jwQ297TWY-43">
          <mxGeometry width="50" height="50" relative="1" as="geometry">
            <mxPoint x="220" y="130" as="sourcePoint" />
            <mxPoint x="270" y="80" as="targetPoint" />
          </mxGeometry>
        </mxCell>
        <mxCell id="YSPF_yS68U6jwQ297TWY-48" value="" style="endArrow=none;html=1;rounded=0;entryX=0.25;entryY=1;entryDx=0;entryDy=0;exitX=0.57;exitY=0.183;exitDx=0;exitDy=0;exitPerimeter=0;" edge="1" parent="1" source="YSPF_yS68U6jwQ297TWY-44" target="YSPF_yS68U6jwQ297TWY-45">
          <mxGeometry width="50" height="50" relative="1" as="geometry">
            <mxPoint x="200" y="260" as="sourcePoint" />
            <mxPoint x="250" y="210" as="targetPoint" />
          </mxGeometry>
        </mxCell>
      </root>
    </mxGraphModel>
  </diagram>
</mxfile>
